<svg width="36px" height="25px" viewBox="0 0 36 25" version="1.1" xmlns="http://www.w3.org/2000/svg" xmlns:xlink="http://www.w3.org/1999/xlink">
  <g id="design" stroke="none" stroke-width="1" fill="none" fill-rule="evenodd" opacity="0.25">
    <g id="blog-post-all-modules" transform="translate(-812.000000, -5232.000000)" fill="#393D3E">
      <g id="speech-mark-2" transform="translate(830.000000, 5244.500000) scale(-1, -1) translate(-830.000000, -5244.500000) translate(812.000000, 5232.000000)">
        <path d="M3.62146928,9.42062053 L13.7837838,0 L16.0810811,0 L7.53178863,7.92532448 C7.84954313,7.8890207 8.17261004,7.87037037 8.5,7.87037037 C13.1944204,7.87037037 17,11.7049686 17,16.4351852 C17,21.1654018 13.1944204,25 8.5,25 C3.80557963,25 0,21.1654018 0,16.4351852 C0,13.5341169 1.43144495,10.9699299 3.62146928,9.42062053 Z" id="Combined-Shape"></path>
        <path d="M22.6214693,9.42062053 L32.7837838,0 L35.0810811,0 L26.5317886,7.92532448 C26.8495431,7.8890207 27.17261,7.87037037 27.5,7.87037037 C32.1944204,7.87037037 36,11.7049686 36,16.4351852 C36,21.1654018 32.1944204,25 27.5,25 C22.8055796,25 19,21.1654018 19,16.4351852 C19,13.5341169 20.4314449,10.9699299 22.6214693,9.42062053 Z" id="Combined-Shape"></path>
      </g>
    </g>
  </g>
</svg>
